<mxfile host="app.diagrams.net" agent="Mozilla/5.0 (Windows NT 10.0; Win64; x64) AppleWebKit/537.36 (KHTML, like Gecko) Chrome/135.0.0.0 Safari/537.36" version="26.2.14">
  <diagram name="Page-1" id="meFHhAYtS75IG4QyfTuI">
    <mxGraphModel dx="2377" dy="1295" grid="1" gridSize="10" guides="1" tooltips="1" connect="1" arrows="1" fold="1" page="1" pageScale="1" pageWidth="827" pageHeight="1169" math="0" shadow="0">
      <root>
        <mxCell id="0" />
        <mxCell id="1" parent="0" />
        <mxCell id="CaqTZhzfRW3xbStBqWQz-13" style="edgeStyle=orthogonalEdgeStyle;rounded=0;orthogonalLoop=1;jettySize=auto;html=1;exitX=0.5;exitY=1;exitDx=0;exitDy=0;entryX=0.5;entryY=0;entryDx=0;entryDy=0;" edge="1" parent="1" source="CaqTZhzfRW3xbStBqWQz-8" target="CaqTZhzfRW3xbStBqWQz-11">
          <mxGeometry relative="1" as="geometry" />
        </mxCell>
        <mxCell id="CaqTZhzfRW3xbStBqWQz-17" style="edgeStyle=orthogonalEdgeStyle;rounded=0;orthogonalLoop=1;jettySize=auto;html=1;exitX=0;exitY=0.5;exitDx=0;exitDy=0;entryX=0.5;entryY=0;entryDx=0;entryDy=0;" edge="1" parent="1" source="CaqTZhzfRW3xbStBqWQz-11" target="CaqTZhzfRW3xbStBqWQz-14">
          <mxGeometry relative="1" as="geometry" />
        </mxCell>
        <mxCell id="CaqTZhzfRW3xbStBqWQz-18" value="Pitched roof" style="edgeLabel;html=1;align=center;verticalAlign=middle;resizable=0;points=[];" vertex="1" connectable="0" parent="CaqTZhzfRW3xbStBqWQz-17">
          <mxGeometry x="0.0289" y="1" relative="1" as="geometry">
            <mxPoint as="offset" />
          </mxGeometry>
        </mxCell>
        <mxCell id="CaqTZhzfRW3xbStBqWQz-21" style="edgeStyle=orthogonalEdgeStyle;rounded=0;orthogonalLoop=1;jettySize=auto;html=1;exitX=1;exitY=0.5;exitDx=0;exitDy=0;entryX=0.5;entryY=0;entryDx=0;entryDy=0;" edge="1" parent="1" source="CaqTZhzfRW3xbStBqWQz-11" target="CaqTZhzfRW3xbStBqWQz-19">
          <mxGeometry relative="1" as="geometry" />
        </mxCell>
        <mxCell id="CaqTZhzfRW3xbStBqWQz-22" value="Flat roof" style="edgeLabel;html=1;align=center;verticalAlign=middle;resizable=0;points=[];" vertex="1" connectable="0" parent="CaqTZhzfRW3xbStBqWQz-21">
          <mxGeometry x="0.1246" y="1" relative="1" as="geometry">
            <mxPoint as="offset" />
          </mxGeometry>
        </mxCell>
        <mxCell id="CaqTZhzfRW3xbStBqWQz-11" value="Roof" style="rhombus;whiteSpace=wrap;html=1;" vertex="1" parent="1">
          <mxGeometry x="374" y="180" width="80" height="80" as="geometry" />
        </mxCell>
        <mxCell id="CaqTZhzfRW3xbStBqWQz-20" value="" style="group" vertex="1" connectable="0" parent="1">
          <mxGeometry x="40" y="240" width="120" height="60" as="geometry" />
        </mxCell>
        <mxCell id="CaqTZhzfRW3xbStBqWQz-14" value="Pitched roof" style="rounded=0;whiteSpace=wrap;html=1;" vertex="1" parent="CaqTZhzfRW3xbStBqWQz-20">
          <mxGeometry width="120" height="60" as="geometry" />
        </mxCell>
        <mxCell id="CaqTZhzfRW3xbStBqWQz-24" value="" style="group" vertex="1" connectable="0" parent="1">
          <mxGeometry x="680" y="240" width="120" height="60" as="geometry" />
        </mxCell>
        <mxCell id="CaqTZhzfRW3xbStBqWQz-19" value="Flat roof" style="rounded=0;whiteSpace=wrap;html=1;" vertex="1" parent="CaqTZhzfRW3xbStBqWQz-24">
          <mxGeometry width="120" height="60" as="geometry" />
        </mxCell>
        <mxCell id="CaqTZhzfRW3xbStBqWQz-34" style="edgeStyle=orthogonalEdgeStyle;rounded=0;orthogonalLoop=1;jettySize=auto;html=1;exitX=0.5;exitY=1;exitDx=0;exitDy=0;entryX=0.5;entryY=0;entryDx=0;entryDy=0;" edge="1" parent="1" source="CaqTZhzfRW3xbStBqWQz-25" target="CaqTZhzfRW3xbStBqWQz-33">
          <mxGeometry relative="1" as="geometry" />
        </mxCell>
        <mxCell id="CaqTZhzfRW3xbStBqWQz-38" style="edgeStyle=orthogonalEdgeStyle;rounded=0;orthogonalLoop=1;jettySize=auto;html=1;exitX=0;exitY=0.5;exitDx=0;exitDy=0;entryX=0.5;entryY=0;entryDx=0;entryDy=0;" edge="1" parent="1" source="CaqTZhzfRW3xbStBqWQz-25" target="CaqTZhzfRW3xbStBqWQz-37">
          <mxGeometry relative="1" as="geometry" />
        </mxCell>
        <mxCell id="CaqTZhzfRW3xbStBqWQz-39" value="If: Pitched roof" style="edgeLabel;html=1;align=center;verticalAlign=middle;resizable=0;points=[];" vertex="1" connectable="0" parent="CaqTZhzfRW3xbStBqWQz-38">
          <mxGeometry x="0.2665" relative="1" as="geometry">
            <mxPoint x="37" as="offset" />
          </mxGeometry>
        </mxCell>
        <mxCell id="CaqTZhzfRW3xbStBqWQz-25" value="Step 1&lt;div&gt;Enter measurements&lt;/div&gt;" style="rounded=0;whiteSpace=wrap;html=1;" vertex="1" parent="1">
          <mxGeometry x="341" y="360" width="146" height="60" as="geometry" />
        </mxCell>
        <mxCell id="CaqTZhzfRW3xbStBqWQz-26" value="" style="group" vertex="1" connectable="0" parent="1">
          <mxGeometry x="354" y="40" width="120" height="60" as="geometry" />
        </mxCell>
        <mxCell id="CaqTZhzfRW3xbStBqWQz-8" value="www.fog.dk/carport" style="rounded=0;whiteSpace=wrap;html=1;" vertex="1" parent="CaqTZhzfRW3xbStBqWQz-26">
          <mxGeometry width="120" height="60" as="geometry" />
        </mxCell>
        <mxCell id="CaqTZhzfRW3xbStBqWQz-31" style="edgeStyle=orthogonalEdgeStyle;rounded=0;orthogonalLoop=1;jettySize=auto;html=1;exitX=0.5;exitY=1;exitDx=0;exitDy=0;entryX=0.5;entryY=0;entryDx=0;entryDy=0;" edge="1" parent="1" source="CaqTZhzfRW3xbStBqWQz-19" target="CaqTZhzfRW3xbStBqWQz-25">
          <mxGeometry relative="1" as="geometry" />
        </mxCell>
        <mxCell id="CaqTZhzfRW3xbStBqWQz-32" style="edgeStyle=orthogonalEdgeStyle;rounded=0;orthogonalLoop=1;jettySize=auto;html=1;exitX=0.5;exitY=1;exitDx=0;exitDy=0;entryX=0.5;entryY=0;entryDx=0;entryDy=0;" edge="1" parent="1" source="CaqTZhzfRW3xbStBqWQz-14" target="CaqTZhzfRW3xbStBqWQz-25">
          <mxGeometry relative="1" as="geometry" />
        </mxCell>
        <mxCell id="CaqTZhzfRW3xbStBqWQz-36" value="" style="group" vertex="1" connectable="0" parent="1">
          <mxGeometry x="354" y="470" width="120" height="60" as="geometry" />
        </mxCell>
        <mxCell id="CaqTZhzfRW3xbStBqWQz-33" value="Step 2&lt;div&gt;Choose materials&lt;/div&gt;" style="rounded=0;whiteSpace=wrap;html=1;" vertex="1" parent="CaqTZhzfRW3xbStBqWQz-36">
          <mxGeometry width="120" height="60" as="geometry" />
        </mxCell>
        <mxCell id="CaqTZhzfRW3xbStBqWQz-40" style="edgeStyle=orthogonalEdgeStyle;rounded=0;orthogonalLoop=1;jettySize=auto;html=1;exitX=0.5;exitY=1;exitDx=0;exitDy=0;entryX=0;entryY=0.5;entryDx=0;entryDy=0;" edge="1" parent="1" source="CaqTZhzfRW3xbStBqWQz-37" target="CaqTZhzfRW3xbStBqWQz-33">
          <mxGeometry relative="1" as="geometry" />
        </mxCell>
        <mxCell id="CaqTZhzfRW3xbStBqWQz-37" value="Step 1.1&lt;div&gt;Pick&amp;nbsp;roof pitch&lt;/div&gt;" style="rounded=0;whiteSpace=wrap;html=1;" vertex="1" parent="1">
          <mxGeometry x="140" y="410" width="120" height="60" as="geometry" />
        </mxCell>
        <mxCell id="CaqTZhzfRW3xbStBqWQz-44" style="edgeStyle=orthogonalEdgeStyle;rounded=0;orthogonalLoop=1;jettySize=auto;html=1;exitX=0.5;exitY=1;exitDx=0;exitDy=0;entryX=0.5;entryY=0;entryDx=0;entryDy=0;" edge="1" parent="1" source="CaqTZhzfRW3xbStBqWQz-41" target="CaqTZhzfRW3xbStBqWQz-43">
          <mxGeometry relative="1" as="geometry" />
        </mxCell>
        <mxCell id="CaqTZhzfRW3xbStBqWQz-41" value="Step 3&lt;div&gt;Enter customer info&lt;/div&gt;" style="rounded=0;whiteSpace=wrap;html=1;" vertex="1" parent="1">
          <mxGeometry x="354" y="570" width="120" height="60" as="geometry" />
        </mxCell>
        <mxCell id="CaqTZhzfRW3xbStBqWQz-42" style="edgeStyle=orthogonalEdgeStyle;rounded=0;orthogonalLoop=1;jettySize=auto;html=1;exitX=0.5;exitY=1;exitDx=0;exitDy=0;entryX=0.5;entryY=0;entryDx=0;entryDy=0;" edge="1" parent="1" source="CaqTZhzfRW3xbStBqWQz-33" target="CaqTZhzfRW3xbStBqWQz-41">
          <mxGeometry relative="1" as="geometry" />
        </mxCell>
        <mxCell id="CaqTZhzfRW3xbStBqWQz-46" style="edgeStyle=orthogonalEdgeStyle;rounded=0;orthogonalLoop=1;jettySize=auto;html=1;exitX=0.5;exitY=1;exitDx=0;exitDy=0;entryX=0.5;entryY=0;entryDx=0;entryDy=0;" edge="1" parent="1" source="CaqTZhzfRW3xbStBqWQz-43" target="CaqTZhzfRW3xbStBqWQz-45">
          <mxGeometry relative="1" as="geometry" />
        </mxCell>
        <mxCell id="CaqTZhzfRW3xbStBqWQz-43" value="Step 4&lt;div&gt;Review request&lt;/div&gt;" style="rounded=0;whiteSpace=wrap;html=1;" vertex="1" parent="1">
          <mxGeometry x="353" y="660" width="120" height="60" as="geometry" />
        </mxCell>
        <mxCell id="CaqTZhzfRW3xbStBqWQz-45" value="Confirmation" style="rounded=0;whiteSpace=wrap;html=1;" vertex="1" parent="1">
          <mxGeometry x="353" y="760" width="120" height="60" as="geometry" />
        </mxCell>
      </root>
    </mxGraphModel>
  </diagram>
</mxfile>
